<svg width="458" height="147" viewBox="0 0 458 147" fill="none" xmlns="http://www.w3.org/2000/svg">
<path fill-rule="evenodd" clip-rule="evenodd" d="M61.7574 45H102V85.2426L85.2426 102H60V87H45V61.7574L61.7574 45ZM66 87H79.2426L87 79.2426V60H67.7574L60 67.7574V81H51V64.2426L64.2426 51H96V82.7574L82.7574 96H66V87ZM66 81V70.2426L70.2426 66H81V76.7574L76.7574 81H66Z" fill="black"/>
<path d="M135 95.9612V50.7906H152.294C163.006 50.7906 168.62 56.3401 168.62 64.9225C168.62 73.6985 162.748 79.1835 152.229 79.1835H142.485V95.9612H135ZM142.485 72.7951H151.778C157.843 72.7951 161.005 69.7622 161.005 64.9871C161.005 60.3409 157.779 57.179 151.778 57.179H142.485V72.7951Z" fill="black"/>
<path d="M202.642 86.4108C200.642 93.5736 193.608 96.671 187.09 96.671C177.798 96.671 170.055 90.0245 170.055 78.9899C170.055 68.4071 177.992 61.7606 186.639 61.7606C195.286 61.7606 202.965 67.7618 202.965 79.7643V81.3775H177.217C177.863 87.1852 182.186 90.7343 187.284 90.7343C190.639 90.7343 193.995 89.6373 195.673 86.4108H202.642ZM186.51 67.6328C181.734 67.6328 177.734 70.7302 177.153 75.828H195.673C195.286 70.8592 191.543 67.6328 186.51 67.6328Z" fill="black"/>
<path d="M215.029 77.1186V95.9612H208.06V62.5349H214.965V67.5682C215.803 66.2776 216.642 65.1806 217.868 64.2772C219.869 62.7931 221.74 62.2768 224.515 62.2768C225.354 62.2768 226.193 62.3414 226.709 62.4704V69.246C225.031 69.1169 224.257 69.1169 223.418 69.1169C219.869 69.1169 215.029 70.343 215.029 77.1186Z" fill="black"/>
<path d="M231.942 56.8564V49.5H239.04V56.8564H231.942ZM232.006 95.9612V62.5349H238.976V95.9612H232.006Z" fill="black"/>
<path d="M252.653 77.0541V95.9612H245.684V62.5349H252.524V66.5358C254.46 63.5029 257.815 61.7606 262.268 61.7606C266.204 61.7606 270.14 63.4384 272.27 67.3746C274.528 63.6965 278.464 61.7606 283.046 61.7606C289.564 61.7606 295.242 65.2452 295.242 74.6665V95.9612H288.273V75.6344C288.273 70.4075 285.305 67.8264 281.368 67.8264C277.497 67.8264 273.947 70.9883 273.947 77.0541V95.9612H266.978V75.6344C266.978 70.4075 264.01 67.8264 260.074 67.8264C256.202 67.8264 252.653 70.9238 252.653 77.0541Z" fill="black"/>
<path d="M332.558 86.4108C330.557 93.5736 323.524 96.671 317.006 96.671C307.714 96.671 299.97 90.0245 299.97 78.9899C299.97 68.4071 307.908 61.7606 316.554 61.7606C325.201 61.7606 332.88 67.7618 332.88 79.7643V81.3775H307.133C307.778 87.1852 312.102 90.7343 317.2 90.7343C320.555 90.7343 323.911 89.6373 325.589 86.4108H332.558ZM316.425 67.6328C311.65 67.6328 307.649 70.7302 307.069 75.828H325.589C325.201 70.8592 321.459 67.6328 316.425 67.6328Z" fill="black"/>
<path d="M348.502 96.0257C343.21 96.0257 339.597 94.4125 339.597 87.0561V68.149H333.789V62.5349H339.597V54.5333H346.501V62.5349H354.503V68.149H346.501V86.0882C346.501 89.7018 347.727 90.3471 350.308 90.3471H354.503V95.8966C352.051 96.0257 351.083 96.0257 348.502 96.0257Z" fill="black"/>
<path d="M388.678 86.4108C386.678 93.5736 379.644 96.671 373.127 96.671C363.834 96.671 356.091 90.0245 356.091 78.9899C356.091 68.4071 364.028 61.7606 372.675 61.7606C381.322 61.7606 389.001 67.7618 389.001 79.7643V81.3775H363.254C363.899 87.1852 368.222 90.7343 373.32 90.7343C376.676 90.7343 380.031 89.6373 381.709 86.4108H388.678ZM372.546 67.6328C367.771 67.6328 363.77 70.7302 363.189 75.828H381.709C381.322 70.8592 377.579 67.6328 372.546 67.6328Z" fill="black"/>
<path d="M400.42 77.1186V95.9612H393.451V62.5349H400.355V67.5682C401.194 66.2776 402.033 65.1806 403.259 64.2772C405.26 62.7931 407.131 62.2768 409.906 62.2768C410.745 62.2768 411.584 62.3414 412.1 62.4704V69.246C410.422 69.1169 409.648 69.1169 408.809 69.1169C405.26 69.1169 400.42 70.343 400.42 77.1186Z" fill="black"/>
</svg>
