<svg width="147" height="119" viewBox="0 0 147 119" fill="none" xmlns="http://www.w3.org/2000/svg">
<path fill-rule="evenodd" clip-rule="evenodd" d="M59.5792 0H109V49.4208L88.4208 70H57.4211V51.5789H39V20.5792L59.5792 0ZM64.7895 51.5789H81.0524L90.5789 42.0524V18.4211H66.9476L57.4211 27.9476V44.2105H46.3684V23.6313L62.6313 7.36842H101.632V46.3687L85.3687 62.6316H64.7895V51.5789ZM64.7895 44.2105V30.9997L69.9997 25.7895H83.2105V39.0003L78.0003 44.2105H64.7895Z" fill="black"/>
<path d="M0 118.624V94.684H9.1916C14.8849 94.684 17.8687 97.6252 17.8687 102.174C17.8687 106.825 14.7477 109.732 9.15731 109.732H3.97845V118.624H0ZM3.97845 106.346H8.91723C12.1411 106.346 13.8217 104.739 13.8217 102.208C13.8217 99.7456 12.1068 98.0698 8.91723 98.0698H3.97845V106.346Z" fill="black"/>
<path d="M25.6965 98.446L27.5485 94H31.527L29.1262 98.446H25.6965ZM35.9513 113.562C34.8881 117.358 31.1497 119 27.6857 119C22.747 119 18.6313 115.477 18.6313 109.629C18.6313 104.021 22.8499 100.498 27.4457 100.498C32.0415 100.498 36.1228 103.679 36.1228 110.04V110.895H22.4383C22.7813 113.973 25.0792 115.854 27.7886 115.854C29.5721 115.854 31.3555 115.272 32.2472 113.562H35.9513ZM27.3771 103.61C24.8391 103.61 22.7127 105.252 22.404 107.953H32.2472C32.0415 105.32 30.0522 103.61 27.3771 103.61Z" fill="black"/>
<path d="M42.535 108.637V118.624H38.8309V100.908H42.5007V103.576C42.9466 102.892 43.3924 102.311 44.0441 101.832C45.1073 101.045 46.1019 100.772 47.5767 100.772C48.0225 100.772 48.4684 100.806 48.7428 100.874V104.465C47.851 104.397 47.4395 104.397 46.9936 104.397C45.1073 104.397 42.535 105.047 42.535 108.637Z" fill="black"/>
<path d="M51.524 97.8988V94H55.2967V97.8988H51.524ZM51.5583 118.624V100.908H55.2624V118.624H51.5583Z" fill="black"/>
<path d="M62.5318 108.603V118.624H58.8277V100.908H62.4632V103.029C63.4921 101.421 65.2755 100.498 67.642 100.498C69.7342 100.498 71.8263 101.387 72.9581 103.473C74.1585 101.524 76.2506 100.498 78.6857 100.498C82.1497 100.498 85.1678 102.345 85.1678 107.338V118.624H81.4637V107.851C81.4637 105.081 79.8861 103.713 77.794 103.713C75.7361 103.713 73.8498 105.389 73.8498 108.603V118.624H70.1457V107.851C70.1457 105.081 68.5681 103.713 66.4759 103.713C64.4181 103.713 62.5318 105.354 62.5318 108.603Z" fill="black"/>
<path d="M94.7461 98.446L92.3453 94H96.3237L98.1758 98.446H94.7461ZM105.001 113.562C103.938 117.358 100.199 119 96.7353 119C91.7965 119 87.6809 115.477 87.6809 109.629C87.6809 104.021 91.8994 100.498 96.4952 100.498C101.091 100.498 105.172 103.679 105.172 110.04V110.895H91.4878C91.8308 113.973 94.1287 115.854 96.8382 115.854C98.6216 115.854 100.405 115.272 101.297 113.562H105.001ZM96.4266 103.61C93.8886 103.61 91.7622 105.252 91.4536 107.953H101.297C101.091 105.32 99.1018 103.61 96.4266 103.61Z" fill="black"/>
<path d="M113.475 118.658C110.663 118.658 108.742 117.803 108.742 113.904V103.884H105.655V100.908H108.742V96.6676H112.412V100.908H116.665V103.884H112.412V113.391C112.412 115.306 113.063 115.648 114.435 115.648H116.665V118.59C115.361 118.658 114.847 118.658 113.475 118.658Z" fill="black"/>
<path d="M122.848 108.637V118.624H119.144V100.908H122.813V103.576C123.259 102.892 123.705 102.311 124.357 101.832C125.42 101.045 126.415 100.772 127.889 100.772C128.335 100.772 128.781 100.806 129.055 100.874V104.465C128.164 104.397 127.752 104.397 127.306 104.397C125.42 104.397 122.848 105.047 122.848 108.637Z" fill="black"/>
<path d="M146.829 113.562C145.765 117.358 142.027 119 138.563 119C133.624 119 129.509 115.477 129.509 109.629C129.509 104.021 133.727 100.498 138.323 100.498C142.919 100.498 147 103.679 147 110.04V110.895H133.315C133.658 113.973 135.956 115.854 138.666 115.854C140.449 115.854 142.233 115.272 143.124 113.562H146.829ZM138.254 103.61C135.716 103.61 133.59 105.252 133.281 107.953H143.124C142.919 105.32 140.929 103.61 138.254 103.61Z" fill="black"/>
</svg>
